<svg width="702" height="636" viewBox="0 0 702 636" fill="none" xmlns="http://www.w3.org/2000/svg">
<path d="M310.543 53.722L353.371 25.1699L549.157 138.359V366.776L502.25 395.328V166.911L310.543 53.722Z" fill="#4B8E96" stroke="#327680" stroke-width="2.03944"/>
<path d="M557.441 151.621L603.582 174.435L603.451 400.585L405.636 514.794L357.455 488.447L555.27 374.239L557.441 151.621Z" fill="#4B8E96" stroke="#327680" stroke-width="2.03944"/>
<path d="M144.571 482.169L98.4297 459.355L98.561 233.205L296.376 118.996L344.556 145.343L146.741 259.551L144.571 482.169Z" fill="#4B8E96" stroke="#11272B" stroke-width="2.03944"/>
<path d="M104.807 221.631L101.494 170.264L297.411 57.303L495.226 171.511L496.5 226.41L298.685 112.202L104.807 221.631Z" fill="#25464A" stroke="#11272B" stroke-width="2.03944"/>
<path d="M390.08 578.881L347.252 607.433L151.466 494.244L151.466 265.827L198.373 237.275L198.373 465.692L390.08 578.881Z" fill="#4B8E96" stroke="#0A181A" stroke-width="2.03944"/>
<path d="M595.166 414.2L598.478 465.566L402.561 578.528L204.746 464.319L203.473 409.42L401.288 523.629L595.166 414.2Z" fill="#133A40" stroke="#0A181A" stroke-width="2.03944"/>
<mask id="path-7-outside-1_1095_31197" maskUnits="userSpaceOnUse" x="500.443" y="226.014" width="110" height="138" fill="black">
<rect fill="white" x="500.443" y="226.014" width="110" height="138"/>
<path d="M504.017 361.014V229.246H606.796V361.014H580.066V252.587H530.747V361.014H504.017Z"/>
</mask>
<path d="M504.017 361.014V229.246H606.796V361.014H580.066V252.587H530.747V361.014H504.017Z" fill="#DCFFF4"/>
<path d="M504.017 361.014H501.121V363.91H504.017V361.014ZM504.017 229.246V226.35H501.121V229.246H504.017ZM606.796 229.246H609.692V226.35H606.796V229.246ZM606.796 361.014V363.91H609.692V361.014H606.796ZM580.066 361.014H577.17V363.91H580.066V361.014ZM580.066 252.587H582.962V249.691H580.066V252.587ZM530.747 252.587V249.691H527.851V252.587H530.747ZM530.747 361.014V363.91H533.643V361.014H530.747ZM506.913 361.014V229.246H501.121V361.014H506.913ZM504.017 232.142H606.796V226.35H504.017V232.142ZM603.9 229.246V361.014H609.692V229.246H603.9ZM606.796 358.118H580.066V363.91H606.796V358.118ZM582.962 361.014V252.587H577.17V361.014H582.962ZM580.066 249.691H530.747V255.483H580.066V249.691ZM527.851 252.587V361.014H533.643V252.587H527.851ZM530.747 358.118H504.017V363.91H530.747V358.118Z" fill="#25464A" mask="url(#path-7-outside-1_1095_31197)"/>
<path d="M349.29 459.578C428.134 459.578 492.05 395.662 492.05 316.818C492.05 237.973 428.134 174.057 349.29 174.057C270.445 174.057 206.529 237.973 206.529 316.818C206.529 395.662 270.445 459.578 349.29 459.578Z" fill="white"/>
<path d="M349.288 432.914C413.407 432.914 465.386 380.935 465.386 316.817C465.386 252.698 413.407 200.72 349.288 200.72C285.17 200.72 233.191 252.698 233.191 316.817C233.191 380.935 285.17 432.914 349.288 432.914Z" fill="#EDA000"/>
<path d="M415.64 296.599C417.179 296.599 418.426 295.351 418.426 293.812C418.426 292.273 417.179 291.026 415.64 291.026C414.101 291.026 412.854 292.273 412.854 293.812C412.854 295.351 414.101 296.599 415.64 296.599Z" fill="#FFC61B"/>
<path d="M355.725 374.117C357.641 374.117 359.195 372.563 359.195 370.646C359.195 368.73 357.641 367.176 355.725 367.176C353.808 367.176 352.254 368.73 352.254 370.646C352.254 372.563 353.808 374.117 355.725 374.117Z" fill="#FFC61B"/>
<path d="M362.207 404.519C362.207 405.423 361.474 406.159 360.569 406.159C359.665 406.159 358.93 405.425 358.93 404.519C358.93 403.612 359.663 402.879 360.569 402.879C361.474 402.879 362.207 403.612 362.207 404.519Z" fill="#FFC61B"/>
<path d="M294.332 340.828C294.332 342.544 292.941 343.937 291.226 343.937C289.51 343.937 288.117 342.546 288.117 340.828C288.117 339.111 289.508 337.72 291.226 337.72C292.939 337.72 294.332 339.111 294.332 340.828Z" fill="#FFC61B"/>
<path d="M333.044 275.18C333.044 276.997 331.571 278.468 329.755 278.468C327.94 278.468 326.467 276.995 326.467 275.18C326.467 273.364 327.94 271.891 329.755 271.891C331.571 271.891 333.044 273.362 333.044 275.18Z" fill="#FFC61B"/>
<path d="M339.136 279.159C340.141 279.159 340.956 278.344 340.956 277.339C340.956 276.334 340.141 275.52 339.136 275.52C338.131 275.52 337.316 276.334 337.316 277.339C337.316 278.344 338.131 279.159 339.136 279.159Z" fill="#FFC61B"/>
<path d="M363.768 254.467C363.768 255.676 362.788 256.656 361.579 256.656C360.371 256.656 359.391 255.676 359.391 254.467C359.391 253.259 360.371 252.279 361.579 252.279C362.788 252.279 363.768 253.259 363.768 254.467Z" fill="#FFC61B"/>
<path d="M349.293 223.202C349.293 224.411 348.313 225.39 347.105 225.39C345.896 225.39 344.916 224.411 344.916 223.202C344.916 221.993 345.896 221.013 347.105 221.013C348.313 221.013 349.293 221.993 349.293 223.202Z" fill="#FFC61B"/>
<path d="M339.346 223.728C339.346 225.228 338.131 226.444 336.631 226.444C335.131 226.444 333.916 225.228 333.916 223.728C333.916 222.229 335.131 221.013 336.631 221.013C338.131 221.013 339.346 222.229 339.346 223.728Z" fill="#FFC61B"/>
<path d="M257.943 296.123C257.943 297.401 256.907 298.436 255.629 298.436C254.352 298.436 253.316 297.401 253.316 296.123C253.316 294.845 254.352 293.81 255.629 293.81C256.907 293.81 257.943 294.845 257.943 296.123Z" fill="#FFC61B"/>
<path d="M307.701 387.137C310.233 387.137 312.285 385.085 312.285 382.554C312.285 380.022 310.233 377.97 307.701 377.97C305.169 377.97 303.117 380.022 303.117 382.554C303.117 385.085 305.169 387.137 307.701 387.137Z" fill="#FFC61B"/>
<path d="M371.737 221.012C371.737 222.628 370.428 223.937 368.813 223.937C367.197 223.937 365.891 222.628 365.891 221.012C365.891 219.397 367.199 218.088 368.813 218.088C370.428 218.088 371.737 219.397 371.737 221.012Z" fill="#FFC61B"/>
<path d="M316.956 413.924C317.53 413.924 317.996 413.458 317.996 412.884C317.996 412.31 317.53 411.844 316.956 411.844C316.382 411.844 315.916 412.31 315.916 412.884C315.916 413.458 316.382 413.924 316.956 413.924Z" fill="#FFC61B"/>
<path d="M425.263 246.886C425.263 248.786 423.723 250.328 421.821 250.328C419.921 250.328 418.379 248.788 418.379 246.886C418.379 244.986 419.919 243.444 421.821 243.444C423.723 243.444 425.263 244.986 425.263 246.886Z" fill="#FFC61B"/>
<path d="M389.383 280.278C389.383 281.902 388.066 283.22 386.444 283.22C384.822 283.22 383.504 281.902 383.504 280.278C383.504 278.654 384.819 277.338 386.444 277.338C388.068 277.338 389.383 278.654 389.383 280.278Z" fill="#FFC61B"/>
<path d="M394.984 276.332C394.984 276.909 394.515 277.378 393.937 277.378C393.359 277.378 392.891 276.909 392.891 276.332C392.891 275.754 393.359 275.285 393.937 275.285C394.515 275.283 394.984 275.752 394.984 276.332Z" fill="#FFC61B"/>
<path d="M286.9 289.095C286.9 290.44 285.809 291.531 284.465 291.531C283.118 291.531 282.029 290.44 282.029 289.095C282.029 287.751 283.12 286.66 284.465 286.66C285.809 286.658 286.9 287.749 286.9 289.095Z" fill="#FFC61B"/>
<path d="M438.271 384.818C438.271 385.7 437.556 386.413 436.676 386.413C435.794 386.413 435.078 385.698 435.078 384.818C435.078 383.936 435.794 383.223 436.676 383.223C437.558 383.223 438.271 383.936 438.271 384.818Z" fill="#FFC61B"/>
<path d="M386.691 232.195C364.314 215.238 324.958 220.03 300.679 229.878C267.696 243.254 255.602 287.824 255.665 320.216C255.742 361.278 282.075 395.105 321.668 406.094C360.468 416.867 403.665 402.271 427.873 370.043C451.723 338.294 453.93 293.553 429.384 261.461C404.478 228.898 358.401 220.888 320.43 230.585C282.248 240.334 249.019 270.553 244.033 310.942C238.824 353.121 264.61 389.788 306.558 396.52C316.297 398.082 326.165 398.564 335.973 399.511C349.671 400.831 362.156 404.539 375.446 407.672C393.372 411.896 408.486 408.714 419.896 393.609C432.75 376.596 440.187 353.879 443.795 333.112C446.859 315.477 447.25 295.777 436.17 280.665C430.181 272.502 421.927 268.353 412.823 264.409C400.9 259.243 390.864 252.877 380.414 245.203C363.452 232.742 344.421 221.692 322.701 221.675C274.569 221.637 265.759 273.702 258.204 310.91C254.722 328.059 254.911 348.344 268.976 360.94C275.42 366.713 283.617 369.592 291.571 372.605C304.556 377.525 313.455 383.779 323.072 393.692C351.98 423.49 393.399 416.044 422.26 389.876C434.585 378.702 450.359 361.478 443.409 343.427C439.956 334.456 431.29 328.286 428.957 318.765C425.731 305.598 435.661 293.055 433.148 279.781C429.939 262.838 412.026 262.134 398.219 260.408C385.053 258.761 377.614 252.322 368.498 243.499C363.327 238.495 357.837 233.484 350.682 231.653C329.231 226.165 311.878 250.282 293.267 256.686C277.218 262.21 261.139 271.311 257.978 289.791C256.673 297.421 259.069 302.674 263.377 308.855C268.201 315.781 271.145 320.305 268.985 329.348C267.848 334.11 265.101 338.4 263.41 342.982C258.069 357.447 264.286 368.348 278.449 373.829C288.672 377.787 301.188 377.567 309.607 385.444C317.173 392.521 318.706 403.526 324.312 411.883C334.822 427.547 353.479 422.044 368.629 417.306C387.195 411.501 410.03 403.464 421.978 387.132C426.515 380.931 429.188 373.77 429.026 366.055C428.706 350.763 421.32 339.163 431.237 324.909C441.971 309.482 445.646 293.373 437.272 275.786C436.35 273.85 433.477 275.539 434.394 277.468C439.765 288.751 440.478 301.827 434.87 313.235C431.579 319.929 425.782 325.171 423.24 332.255C421.205 337.932 421.72 343.671 422.782 349.497C425.16 362.531 427.688 373.438 419.249 385.033C407.1 401.722 382.907 409.736 363.878 415.253C353.422 418.286 339.277 422.726 330.256 414.005C325.016 408.941 322.903 401.415 319.855 395.016C314.029 382.786 305.667 377.518 292.709 374.278C284.894 372.325 276.264 370.825 270.041 365.264C260.386 356.636 266.077 345.642 270.056 335.879C271.936 331.27 273.771 326.422 273.311 321.347C272.669 314.263 267.639 310.424 264.375 304.582C257.84 292.888 263.022 280.332 271.92 271.493C279.593 263.874 289.703 261.925 299.382 258.077C316.711 251.187 332.795 227.6 353.402 236.235C365.731 241.403 372.155 255.108 384.496 260.541C400.987 267.8 430.55 259.339 430.117 286.358C429.85 302.974 420.343 314.363 430.768 329.946C435.723 337.352 442.315 344.111 441.82 353.736C441.207 365.617 431.683 375.998 423.66 383.924C409.784 397.631 391.944 408.676 372.073 410.087C350.666 411.607 336.124 402.104 321.766 387.501C310.411 375.954 297.768 372.174 283.352 365.777C259.977 355.405 256.818 332.574 261.868 309.739C265.881 291.593 269.316 270.358 277.36 253.522C286.383 234.629 305.461 223.912 326.247 225.11C346.774 226.292 364.24 237.377 380.281 249.227C387.533 254.584 394.788 259.843 402.96 263.729C411.07 267.587 419.763 270.191 426.855 275.866C445.313 290.633 443.906 317.014 439.496 337.869C435.734 355.652 429.29 373.941 419.036 389.07C412.33 398.962 402.958 406.279 390.542 406.466C380.052 406.623 369.818 402.442 359.783 399.942C324.732 391.21 283.781 399.871 260.202 365.868C236.671 331.937 245.872 286.013 274.887 258.668C302.688 232.464 345.727 223.843 382.112 234.229C420.136 245.083 446.144 279.676 443.566 319.614C441.036 358.831 411.577 392.103 374.295 402.682C336.186 413.494 291.967 399.275 270.669 364.984C250.607 332.683 257.535 285.991 277.042 255.028C292.807 230.002 322.708 224.068 350.778 225.225C362.629 225.714 375.328 227.729 385.007 235.064C386.718 236.371 388.382 233.478 386.691 232.195Z" fill="white"/>
<path d="M415.037 316.494C416.037 309.542 416.606 302.387 416.601 295.346C416.599 292.893 414.742 290.802 412.291 290.664C404.19 290.211 396.046 290.524 388.005 291.597C386.101 291.851 384.523 293.286 384.132 295.168C382.541 302.84 382.245 310.544 383.243 318.316C383.496 320.294 385.072 321.836 387.032 322.205C395.728 323.842 403.89 323.442 412.091 320.154C413.651 319.529 414.799 318.154 415.037 316.494Z" fill="#E37B13"/>
<path d="M400.297 355.04C395.06 350.361 389.414 345.93 383.546 342.038C381.502 340.682 378.731 341.073 377.262 343.038C372.403 349.535 368.159 356.491 364.604 363.784C363.762 365.51 364.084 367.619 365.437 368.985C370.948 374.556 377.202 379.062 384.228 382.531C386.015 383.413 388.172 382.955 389.563 381.526C395.738 375.187 399.917 368.168 401.717 359.516C402.057 357.873 401.548 356.156 400.297 355.04Z" fill="#E37B13"/>
<path d="M388.11 276.372C382.871 271.692 377.227 267.259 371.359 263.369C369.315 262.013 366.544 262.404 365.075 264.369C360.216 270.866 355.972 277.822 352.417 285.115C351.574 286.841 351.897 288.95 353.248 290.317C358.76 295.887 365.015 300.393 372.039 303.862C373.827 304.744 375.983 304.286 377.374 302.857C383.548 296.518 387.728 289.499 389.528 280.847C389.872 279.207 389.361 277.489 388.11 276.372Z" fill="#E37B13"/>
<path d="M403.061 356.711C405.903 347.546 407.659 337.785 408.852 328.233C409.221 325.282 407.294 322.5 404.388 321.88C395.489 319.985 386.257 319.651 377.244 320.902C374.683 321.258 372.698 323.282 372.314 325.84C370.963 334.821 370.636 343.833 370.852 352.927C370.916 355.676 372.885 358.025 375.591 358.502C382.602 359.74 389.898 360.104 397.011 360.771C399.735 361.026 402.25 359.329 403.061 356.711Z" fill="#E37B13"/>
<path d="M328.729 330.495C323.438 322.49 316.999 314.946 310.364 307.969C308.316 305.814 304.943 305.543 302.621 307.398C295.515 313.082 289.409 320.012 284.668 327.778C283.319 329.984 283.628 332.802 285.361 334.721C291.453 341.458 298.219 347.422 305.39 353.017C307.556 354.708 310.62 354.672 312.706 352.881C318.106 348.242 323.01 342.829 328.034 337.748C329.96 335.801 330.24 332.782 328.729 330.495Z" fill="#E37B13"/>
<path d="M363.18 317.708C357.89 309.702 351.45 302.158 344.816 295.182C342.767 293.026 339.394 292.755 337.072 294.61C329.966 300.294 323.86 307.225 319.119 314.99C317.77 317.197 318.079 320.014 319.814 321.934C325.907 328.671 332.673 334.635 339.843 340.229C342.009 341.92 345.073 341.885 347.157 340.094C352.557 335.454 357.461 330.042 362.485 324.96C364.413 323.014 364.691 319.994 363.18 317.708Z" fill="#E37B13"/>
<path d="M388.879 329.576C383.589 321.571 377.15 314.027 370.515 307.05C368.466 304.895 365.093 304.624 362.771 306.479C355.666 312.163 349.56 319.093 344.818 326.859C343.469 329.065 343.778 331.885 345.511 333.803C351.604 340.539 358.37 346.503 365.54 352.096C367.706 353.787 370.77 353.751 372.857 351.96C378.256 347.321 383.16 341.908 388.184 336.827C390.11 334.882 390.388 331.863 388.879 329.576Z" fill="#E37B13"/>
<path d="M365.166 285.365C359.876 277.359 353.437 269.816 346.802 262.841C344.753 260.686 341.38 260.415 339.059 262.27C331.953 267.954 325.847 274.884 321.105 282.65C319.756 284.856 320.065 287.674 321.798 289.594C327.891 296.328 334.657 302.294 341.827 307.887C343.993 309.578 347.058 309.542 349.144 307.751C354.543 303.112 359.447 297.697 364.471 292.618C366.397 290.671 366.677 287.649 365.166 285.365Z" fill="#E37B13"/>
<path d="M324.132 279.84C314.554 279.254 304.655 279.865 295.092 280.969C292.139 281.311 289.892 283.842 289.981 286.813C290.25 295.907 292.116 304.955 295.469 313.412C296.423 315.816 298.858 317.265 301.435 317.032C310.481 316.214 319.313 314.394 328.096 312.028C330.749 311.312 332.565 308.844 332.387 306.099C331.927 298.996 330.55 291.821 329.512 284.753C329.112 282.047 326.865 280.007 324.132 279.84Z" fill="#E37B13"/>
<path d="M356.89 377.452C359.729 368.287 361.487 358.525 362.68 348.973C363.049 346.023 361.123 343.241 358.214 342.621C349.315 340.725 340.083 340.392 331.073 341.643C328.511 341.999 326.527 344.023 326.14 346.58C324.789 355.561 324.463 364.574 324.678 373.668C324.743 376.417 326.711 378.765 329.418 379.243C336.428 380.481 343.722 380.845 350.837 381.512C353.564 381.767 356.079 380.07 356.89 377.452Z" fill="#E37B13"/>
<path d="M358.43 338.146C353.14 330.14 346.7 322.597 340.066 315.62C338.017 313.465 334.644 313.191 332.322 315.049C325.216 320.733 319.11 327.663 314.369 335.429C313.02 337.635 313.329 340.453 315.062 342.372C321.155 349.109 327.92 355.073 335.091 360.666C337.257 362.357 340.321 362.321 342.408 360.53C347.807 355.891 352.711 350.478 357.735 345.396C359.661 343.452 359.941 340.43 358.43 338.146Z" fill="#FFC61B"/>
<path d="M342.229 293.127C336.938 285.122 330.499 277.578 323.864 270.603C321.816 268.448 318.443 268.177 316.121 270.032C309.017 275.716 302.909 282.646 298.167 290.412C296.819 292.619 297.128 295.436 298.863 297.356C304.956 304.093 311.721 310.056 318.892 315.649C321.058 317.34 324.122 317.304 326.209 315.514C331.608 310.874 336.512 305.459 341.536 300.38C343.46 298.433 343.74 295.414 342.229 293.127Z" fill="#FFC61B"/>
<path d="M405.955 348.018C400.665 340.012 394.226 332.469 387.591 325.494C385.542 323.339 382.169 323.068 379.847 324.923C372.744 330.607 366.636 337.537 361.894 345.303C360.545 347.509 360.854 350.327 362.589 352.246C368.682 358.981 375.448 364.947 382.618 370.54C384.785 372.231 387.849 372.195 389.935 370.404C395.334 365.765 400.238 360.35 405.262 355.27C407.186 353.324 407.466 350.302 405.955 348.018Z" fill="#FFC61B"/>
<path d="M400.268 301.168C394.977 293.163 388.538 285.619 381.903 278.644C379.855 276.489 376.482 276.218 374.16 278.073C367.054 283.757 360.948 290.687 356.207 298.453C354.858 300.66 355.167 303.477 356.902 305.397C362.995 312.134 369.76 318.097 376.931 323.69C379.097 325.381 382.161 325.345 384.248 323.555C389.647 318.915 394.551 313.502 399.575 308.421C401.499 306.474 401.779 303.455 400.268 301.168Z" fill="#FFC61B"/>
<g opacity="0.2">
<path d="M349.286 200.719C315.021 200.719 284.187 215.651 262.916 239.335C283.482 220.866 310.646 209.607 340.398 209.607C404.415 209.607 456.495 261.687 456.495 325.704C456.495 355.456 445.234 382.62 426.767 403.186C450.453 381.915 465.383 351.081 465.383 316.816C465.383 252.8 413.3 200.719 349.286 200.719Z" fill="#3E3331"/>
</g>
<path d="M330.848 313.559C325.611 308.88 319.965 304.449 314.097 300.556C312.053 299.201 309.282 299.592 307.813 301.556C302.954 308.053 298.71 315.01 295.155 322.302C294.313 324.029 294.635 326.138 295.988 327.504C301.498 333.075 307.753 337.581 314.779 341.049C316.568 341.931 318.723 341.473 320.114 340.045C326.289 333.706 330.47 326.686 332.268 318.034C332.61 316.394 332.099 314.677 330.848 313.559Z" fill="#FFE655"/>
<path d="M407.173 319.784C401.935 315.105 396.289 310.672 390.421 306.781C388.377 305.426 385.606 305.817 384.138 307.781C379.278 314.278 375.034 321.235 371.479 328.528C370.637 330.254 370.959 332.363 372.31 333.729C377.823 339.3 384.078 343.806 391.101 347.274C392.89 348.156 395.045 347.699 396.436 346.27C402.611 339.931 406.793 332.911 408.59 324.259C408.935 322.619 408.424 320.902 407.173 319.784Z" fill="#FFE655"/>
<path d="M372.686 290.153C367.447 285.474 361.803 281.043 355.935 277.15C353.891 275.795 351.12 276.186 349.651 278.15C344.792 284.647 340.548 291.604 336.993 298.897C336.151 300.623 336.473 302.732 337.826 304.098C343.339 309.669 349.591 314.175 356.617 317.643C358.406 318.525 360.561 318.068 361.952 316.639C368.127 310.3 372.306 303.281 374.106 294.628C374.448 292.989 373.937 291.271 372.686 290.153Z" fill="#FFE655"/>
<path d="M376.67 359.032C374.883 352.239 372.619 345.429 369.87 338.945C368.913 336.688 366.386 335.486 364.078 336.312C356.441 339.052 349.064 342.512 342.076 346.633C340.421 347.609 339.527 349.546 339.901 351.43C341.425 359.116 344.156 366.326 348.102 373.094C349.106 374.817 351.157 375.625 353.106 375.201C361.754 373.321 369.113 369.773 375.385 363.547C376.574 362.367 377.096 360.652 376.67 359.032Z" fill="#FFE655"/>
<path d="M357.011 310.82C342.488 317.419 331.441 331.195 328.154 346.804C336.213 344.336 343.206 339.654 348.036 332.746C352.869 325.838 357.457 319.237 357.011 310.82Z" fill="#6C9721"/>
<path d="M356.07 248.125C351.403 254.545 347.555 261.786 346.48 269.65C345.404 277.511 347.435 286.072 353.106 291.622C362.773 279.168 364.124 261.677 356.07 248.125Z" fill="#6C9721"/>
<path d="M276.669 349.054C270.981 346.147 266.437 341.068 264.182 335.091C261.927 329.114 261.982 322.299 264.333 316.36C270.339 318.56 273.91 322.919 276.783 328.634C279.656 334.349 278.487 342.921 276.669 349.054Z" fill="#6C9721"/>
<path d="M392.242 360.914C386.618 364.229 380.956 367.888 377.235 373.254C373.513 378.62 372.153 386.115 375.55 391.692C381.616 388.892 387.042 385.168 390.2 379.283C393.355 373.392 393.266 367.515 392.242 360.914Z" fill="#6C9721"/>
<path d="M413.749 254.854C407.568 251.894 404.348 243.902 406.752 237.485C412.556 241.475 415.48 248.026 413.749 254.854Z" fill="#6C9721"/>
<path d="M333.714 390.632C321.822 391.17 310.85 400.353 308.229 411.965C321.445 410.781 329.693 403.277 333.714 390.632Z" fill="#6C9721"/>
<path d="M292.289 350.268C291.263 351.447 290.378 351.447 289.352 352.627C288.785 351.452 288.221 350.276 287.654 349.101C288.839 349.339 291.109 350.03 292.289 350.268Z" fill="#F05F3B"/>
<path d="M294.824 275.554C293.72 275.554 293.295 275.076 292.193 275.076C292.582 273.105 292.971 271.134 293.358 269.164C294.302 269.324 295.522 269.312 296.468 269.475C295.915 271.679 295.375 273.348 294.824 275.554Z" fill="#F05F3B"/>
<path d="M337.306 252.554C336.284 252.232 335.042 251.623 334.018 251.301C333.151 252.325 332.285 253.349 331.418 254.374C331.971 255.949 333.66 256.831 334.213 258.407C335.158 256.438 336.36 254.523 337.306 252.554Z" fill="#F05F3B"/>
<path d="M276.628 298.648C274.546 299.339 272.812 299.652 270.73 300.341C271.597 300.972 272.464 301.601 273.33 302.232C274.243 301.168 275.717 299.712 276.628 298.648Z" fill="#F05F3B"/>
<path d="M409.734 367.494C409.594 366.4 410.016 365.918 409.876 364.823C411.88 364.958 413.885 365.096 415.889 365.232C415.849 366.189 416.013 367.398 415.973 368.356C413.716 368.087 411.991 367.762 409.734 367.494Z" fill="#F05F3B"/>
<path d="M413.496 328.765C413.356 327.672 413.778 327.187 413.638 326.094C415.642 326.23 417.646 326.368 419.65 326.503C419.61 327.461 419.775 328.67 419.735 329.627C417.48 329.358 415.755 329.034 413.496 328.765Z" fill="#F05F3B"/>
<path d="M376.617 424.58C376.806 423.524 377.255 422.216 377.444 421.16C376.317 420.429 375.193 419.698 374.066 418.969C372.573 419.716 371.911 421.504 370.418 422.251C372.493 422.94 374.544 423.891 376.617 424.58Z" fill="#F05F3B"/>
<path d="M315.104 368.627C315.292 367.571 315.741 366.262 315.93 365.207C314.804 364.476 313.679 363.745 312.553 363.016C311.06 363.763 310.397 365.551 308.904 366.298C310.977 366.987 313.028 367.938 315.104 368.627Z" fill="#F05F3B"/>
<path d="M450.89 338.417C449.591 337.548 449.48 336.67 448.18 335.802C449.273 335.093 450.368 334.382 451.461 333.673C451.377 334.875 450.975 337.215 450.89 338.417Z" fill="#F05F3B"/>
<path d="M419.794 281.307C420.245 280.336 421.012 279.183 421.465 278.212C420.563 277.218 419.661 276.225 418.757 275.232C417.121 275.574 416.028 277.134 414.393 277.476C416.223 278.672 417.965 280.111 419.794 281.307Z" fill="#F05F3B"/>
<path d="M334.355 220.38C335.378 220.705 336.617 221.32 337.637 221.647C338.508 220.627 339.379 219.605 340.25 218.585C339.706 217.007 338.017 216.118 337.473 214.539C336.52 216.503 335.309 218.414 334.355 220.38Z" fill="#F05F3B"/>
<path d="M287.018 408.003C289.102 407.321 290.837 407.016 292.921 406.334C292.057 405.701 291.193 405.065 290.328 404.432C289.413 405.494 287.933 406.943 287.018 408.003Z" fill="#F05F3B"/>
<path d="M303.996 273.284L307.432 250.958L354.503 258.203L362.762 240.429L330.575 235.474L318.088 142.133L344.879 146.257L353.432 216.9L371.107 219.62L399.763 154.705L426.368 158.8L369.671 283.393L303.996 273.284Z" fill="url(#paint0_linear_1095_31197)"/>
<mask id="path-68-outside-2_1095_31197" maskUnits="userSpaceOnUse" x="98.7305" y="226.014" width="97" height="138" fill="black">
<rect fill="white" x="98.7305" y="226.014" width="97" height="138"/>
<path d="M102.427 340.684V249.576L122.757 229.246H190.147V253.529H129.91V336.731H192.029V361.014H122.757L102.427 340.684Z"/>
</mask>
<path d="M102.427 340.684V249.576L122.757 229.246H190.147V253.529H129.91V336.731H192.029V361.014H122.757L102.427 340.684Z" fill="#DCFFF4"/>
<path d="M102.427 340.684H99.5312V341.883L100.379 342.732L102.427 340.684ZM102.427 249.576L100.379 247.528L99.5312 248.376V249.576H102.427ZM122.757 229.246V226.35H121.558L120.709 227.198L122.757 229.246ZM190.147 229.246H193.043V226.35H190.147V229.246ZM190.147 253.529V256.425H193.043V253.529H190.147ZM129.91 253.529V250.633H127.014V253.529H129.91ZM129.91 336.731H127.014V339.627H129.91V336.731ZM192.029 336.731H194.925V333.835H192.029V336.731ZM192.029 361.014V363.91H194.925V361.014H192.029ZM122.757 361.014L120.709 363.061L121.558 363.91H122.757V361.014ZM105.323 340.684V249.576H99.5312V340.684H105.323ZM104.475 251.623L124.805 231.293L120.709 227.198L100.379 247.528L104.475 251.623ZM122.757 232.142H190.147V226.35H122.757V232.142ZM187.251 229.246V253.529H193.043V229.246H187.251ZM190.147 250.633H129.91V256.425H190.147V250.633ZM127.014 253.529V336.731H132.806V253.529H127.014ZM129.91 339.627H192.029V333.835H129.91V339.627ZM189.133 336.731V361.014H194.925V336.731H189.133ZM192.029 358.118H122.757V363.91H192.029V358.118ZM124.805 358.966L104.475 338.636L100.379 342.732L120.709 363.061L124.805 358.966Z" fill="#25464A" mask="url(#path-68-outside-2_1095_31197)"/>
<defs>
<linearGradient id="paint0_linear_1095_31197" x1="371.892" y1="152.406" x2="344.874" y2="327.939" gradientUnits="userSpaceOnUse">
<stop stop-color="#7A8115"/>
<stop offset="0.308862" stop-color="#6C9721"/>
<stop offset="1" stop-color="#EDA000" stop-opacity="0"/>
</linearGradient>
</defs>
</svg>
