<svg width="702" height="635" viewBox="0 0 702 635" fill="none" xmlns="http://www.w3.org/2000/svg">
<path d="M310.543 53.3221L353.371 24.77L549.157 137.959V366.376L502.25 394.928V166.511L310.543 53.3221Z" fill="#4B8E96" stroke="#327680" stroke-width="2.03944"/>
<path d="M557.441 151.221L603.582 174.036L603.451 400.186L405.636 514.394L357.455 488.047L555.27 373.839L557.441 151.221Z" fill="#4B8E96" stroke="#327680" stroke-width="2.03944"/>
<path d="M144.571 481.769L98.4297 458.955L98.561 232.805L296.376 118.596L344.556 144.943L146.741 259.151L144.571 481.769Z" fill="#4B8E96" stroke="#11272B" stroke-width="2.03944"/>
<path d="M104.807 221.231L101.494 169.864L297.411 56.9031L495.226 171.112L496.5 226.01L298.685 111.802L104.807 221.231Z" fill="#25464A" stroke="#11272B" stroke-width="2.03944"/>
<path d="M390.08 578.481L347.252 607.033L151.466 493.844L151.466 265.427L198.373 236.875L198.373 465.292L390.08 578.481Z" fill="#4B8E96" stroke="#0A181A" stroke-width="2.03944"/>
<path d="M595.166 413.8L598.478 465.166L402.561 578.128L204.746 463.919L203.473 409.02L401.288 523.229L595.166 413.8Z" fill="#133A40" stroke="#0A181A" stroke-width="2.03944"/>
<path d="M349.29 459.178C428.134 459.178 492.05 395.262 492.05 316.418C492.05 237.573 428.134 173.657 349.29 173.657C270.445 173.657 206.529 237.573 206.529 316.418C206.529 395.262 270.445 459.178 349.29 459.178Z" fill="white"/>
<path d="M349.288 432.514C413.407 432.514 465.386 380.536 465.386 316.417C465.386 252.298 413.407 200.32 349.288 200.32C285.17 200.32 233.191 252.298 233.191 316.417C233.191 380.536 285.17 432.514 349.288 432.514Z" fill="#EDA000"/>
<path d="M415.64 296.199C417.179 296.199 418.426 294.951 418.426 293.412C418.426 291.873 417.179 290.626 415.64 290.626C414.101 290.626 412.854 291.873 412.854 293.412C412.854 294.951 414.101 296.199 415.64 296.199Z" fill="#FFC61B"/>
<path d="M355.725 373.717C357.641 373.717 359.195 372.163 359.195 370.247C359.195 368.33 357.641 366.776 355.725 366.776C353.808 366.776 352.254 368.33 352.254 370.247C352.254 372.163 353.808 373.717 355.725 373.717Z" fill="#FFC61B"/>
<path d="M362.207 404.119C362.207 405.023 361.474 405.759 360.569 405.759C359.665 405.759 358.93 405.025 358.93 404.119C358.93 403.212 359.663 402.479 360.569 402.479C361.474 402.479 362.207 403.212 362.207 404.119Z" fill="#FFC61B"/>
<path d="M294.332 340.428C294.332 342.144 292.941 343.537 291.226 343.537C289.51 343.537 288.117 342.146 288.117 340.428C288.117 338.711 289.508 337.32 291.226 337.32C292.939 337.32 294.332 338.711 294.332 340.428Z" fill="#FFC61B"/>
<path d="M333.044 274.78C333.044 276.597 331.571 278.068 329.755 278.068C327.94 278.068 326.467 276.595 326.467 274.78C326.467 272.964 327.94 271.491 329.755 271.491C331.571 271.491 333.044 272.962 333.044 274.78Z" fill="#FFC61B"/>
<path d="M339.136 278.759C340.141 278.759 340.956 277.944 340.956 276.939C340.956 275.934 340.141 275.12 339.136 275.12C338.131 275.12 337.316 275.934 337.316 276.939C337.316 277.944 338.131 278.759 339.136 278.759Z" fill="#FFC61B"/>
<path d="M363.768 254.068C363.768 255.276 362.788 256.256 361.579 256.256C360.371 256.256 359.391 255.276 359.391 254.068C359.391 252.859 360.371 251.879 361.579 251.879C362.788 251.879 363.768 252.859 363.768 254.068Z" fill="#FFC61B"/>
<path d="M349.293 222.802C349.293 224.011 348.313 224.991 347.105 224.991C345.896 224.991 344.916 224.011 344.916 222.802C344.916 221.593 345.896 220.613 347.105 220.613C348.313 220.613 349.293 221.593 349.293 222.802Z" fill="#FFC61B"/>
<path d="M339.346 223.329C339.346 224.828 338.131 226.044 336.631 226.044C335.131 226.044 333.916 224.828 333.916 223.329C333.916 221.829 335.131 220.613 336.631 220.613C338.131 220.613 339.346 221.829 339.346 223.329Z" fill="#FFC61B"/>
<path d="M257.943 295.723C257.943 297.001 256.907 298.036 255.629 298.036C254.352 298.036 253.316 297.001 253.316 295.723C253.316 294.446 254.352 293.41 255.629 293.41C256.907 293.41 257.943 294.446 257.943 295.723Z" fill="#FFC61B"/>
<path d="M307.701 386.738C310.233 386.738 312.285 384.685 312.285 382.154C312.285 379.622 310.233 377.57 307.701 377.57C305.169 377.57 303.117 379.622 303.117 382.154C303.117 384.685 305.169 386.738 307.701 386.738Z" fill="#FFC61B"/>
<path d="M371.737 220.613C371.737 222.228 370.428 223.537 368.813 223.537C367.197 223.537 365.891 222.228 365.891 220.613C365.891 218.997 367.199 217.688 368.813 217.688C370.428 217.688 371.737 218.997 371.737 220.613Z" fill="#FFC61B"/>
<path d="M316.956 413.524C317.53 413.524 317.996 413.059 317.996 412.484C317.996 411.91 317.53 411.444 316.956 411.444C316.382 411.444 315.916 411.91 315.916 412.484C315.916 413.059 316.382 413.524 316.956 413.524Z" fill="#FFC61B"/>
<path d="M425.263 246.486C425.263 248.386 423.723 249.928 421.821 249.928C419.921 249.928 418.379 248.388 418.379 246.486C418.379 244.586 419.919 243.044 421.821 243.044C423.723 243.044 425.263 244.586 425.263 246.486Z" fill="#FFC61B"/>
<path d="M389.383 279.878C389.383 281.502 388.066 282.82 386.444 282.82C384.822 282.82 383.504 281.502 383.504 279.878C383.504 278.254 384.819 276.938 386.444 276.938C388.068 276.938 389.383 278.254 389.383 279.878Z" fill="#FFC61B"/>
<path d="M394.984 275.932C394.984 276.51 394.515 276.978 393.937 276.978C393.359 276.978 392.891 276.51 392.891 275.932C392.891 275.354 393.359 274.885 393.937 274.885C394.515 274.883 394.984 275.352 394.984 275.932Z" fill="#FFC61B"/>
<path d="M286.9 288.696C286.9 290.04 285.809 291.131 284.465 291.131C283.118 291.131 282.029 290.04 282.029 288.696C282.029 287.351 283.12 286.26 284.465 286.26C285.809 286.258 286.9 287.349 286.9 288.696Z" fill="#FFC61B"/>
<path d="M438.271 384.418C438.271 385.3 437.556 386.013 436.676 386.013C435.794 386.013 435.078 385.298 435.078 384.418C435.078 383.536 435.794 382.823 436.676 382.823C437.558 382.823 438.271 383.536 438.271 384.418Z" fill="#FFC61B"/>
<path d="M386.691 231.796C364.314 214.838 324.958 219.63 300.679 229.478C267.696 242.854 255.602 287.424 255.665 319.816C255.742 360.878 282.075 394.705 321.668 405.695C360.468 416.467 403.665 401.871 427.873 369.643C451.723 337.894 453.93 293.153 429.384 261.061C404.478 228.498 358.401 220.488 320.43 230.185C282.248 239.935 249.019 270.153 244.033 310.542C238.824 352.721 264.61 389.388 306.558 396.12C316.297 397.682 326.165 398.164 335.973 399.111C349.671 400.431 362.156 404.139 375.446 407.272C393.372 411.496 408.486 408.314 419.896 393.209C432.75 376.196 440.187 353.479 443.795 332.712C446.859 315.077 447.25 295.377 436.17 280.265C430.181 272.102 421.927 267.953 412.823 264.009C400.9 258.843 390.864 252.478 380.414 244.803C363.452 232.342 344.421 221.292 322.701 221.275C274.569 221.237 265.759 273.302 258.204 310.511C254.722 327.66 254.911 347.944 268.976 360.54C275.42 366.313 283.617 369.192 291.571 372.205C304.556 377.125 313.455 383.38 323.072 393.292C351.98 423.09 393.399 415.645 422.26 389.477C434.585 378.302 450.359 361.078 443.409 343.027C439.956 334.057 431.29 327.886 428.957 318.365C425.731 305.198 435.661 292.655 433.148 279.381C429.939 262.439 412.026 261.734 398.219 260.008C385.053 258.361 377.614 251.922 368.498 243.099C363.327 238.095 357.837 233.084 350.682 231.253C329.231 225.765 311.878 249.882 293.267 256.286C277.218 261.81 261.139 270.911 257.978 289.391C256.673 297.021 259.069 302.274 263.377 308.455C268.201 315.381 271.145 319.905 268.985 328.948C267.848 333.71 265.101 338.001 263.41 342.582C258.069 357.047 264.286 367.948 278.449 373.43C288.672 377.387 301.188 377.167 309.607 385.044C317.173 392.121 318.706 403.126 324.312 411.483C334.822 427.148 353.479 421.644 368.629 416.907C387.195 411.101 410.03 403.064 421.978 386.732C426.515 380.531 429.188 373.37 429.026 365.655C428.706 350.364 421.32 338.763 431.237 324.509C441.971 309.082 445.646 292.973 437.272 275.386C436.35 273.451 433.477 275.139 434.394 277.068C439.765 288.351 440.478 301.427 434.87 312.835C431.579 319.529 425.782 324.771 423.24 331.855C421.205 337.532 421.72 343.271 422.782 349.097C425.16 362.131 427.688 373.039 419.249 384.633C407.1 401.322 382.907 409.336 363.878 414.854C353.422 417.886 339.277 422.326 330.256 413.605C325.016 408.541 322.903 401.015 319.855 394.616C314.029 382.386 305.667 377.118 292.709 373.878C284.894 371.925 276.264 370.426 270.041 364.864C260.386 356.236 266.077 345.242 270.056 335.479C271.936 330.87 273.771 326.022 273.311 320.947C272.669 313.863 267.639 310.024 264.375 304.182C257.84 292.488 263.022 279.932 271.92 271.093C279.593 263.474 289.703 261.525 299.382 257.677C316.711 250.787 332.795 227.201 353.402 235.835C365.731 241.003 372.155 254.708 384.496 260.141C400.987 267.4 430.55 258.939 430.117 285.958C429.85 302.574 420.343 313.963 430.768 329.546C435.723 336.952 442.315 343.711 441.82 353.336C441.207 365.217 431.683 375.598 423.66 383.524C409.784 397.231 391.944 408.277 372.073 409.687C350.666 411.207 336.124 401.704 321.766 387.101C310.411 375.554 297.768 371.774 283.352 365.377C259.977 355.005 256.818 332.175 261.868 309.34C265.881 291.193 269.316 269.958 277.36 253.122C286.383 234.229 305.461 223.512 326.247 224.71C346.774 225.892 364.24 236.977 380.281 248.827C387.533 254.184 394.788 259.443 402.96 263.33C411.07 267.187 419.763 269.791 426.855 275.466C445.313 290.233 443.906 316.614 439.496 337.47C435.734 355.252 429.29 373.541 419.036 388.67C412.33 398.562 402.958 405.879 390.542 406.066C380.052 406.223 369.818 402.042 359.783 399.542C324.732 390.81 283.781 399.471 260.202 365.468C236.671 331.537 245.872 285.614 274.887 258.268C302.688 232.064 345.727 223.443 382.112 233.829C420.136 244.683 446.144 279.277 443.566 319.214C441.036 358.431 411.577 391.703 374.295 402.282C336.186 413.094 291.967 398.875 270.669 364.584C250.607 332.283 257.535 285.591 277.042 254.628C292.807 229.603 322.708 223.668 350.778 224.825C362.629 225.314 375.328 227.329 385.007 234.664C386.718 235.971 388.382 233.078 386.691 231.796Z" fill="white"/>
<path d="M415.037 316.094C416.037 309.142 416.606 301.987 416.601 294.946C416.599 292.493 414.742 290.402 412.291 290.264C404.19 289.811 396.046 290.124 388.005 291.197C386.101 291.451 384.523 292.886 384.132 294.768C382.541 302.441 382.245 310.144 383.243 317.916C383.496 319.894 385.072 321.436 387.032 321.805C395.728 323.442 403.89 323.042 412.091 319.754C413.651 319.13 414.799 317.754 415.037 316.094Z" fill="#E37B13"/>
<path d="M400.297 354.641C395.06 349.961 389.414 345.531 383.546 341.638C381.502 340.282 378.731 340.673 377.262 342.638C372.403 349.135 368.159 356.092 364.604 363.384C363.762 365.11 364.084 367.219 365.437 368.586C370.948 374.156 377.202 378.662 384.228 382.131C386.015 383.013 388.172 382.555 389.563 381.126C395.738 374.787 399.917 367.768 401.717 359.116C402.057 357.474 401.548 355.756 400.297 354.641Z" fill="#E37B13"/>
<path d="M388.11 275.972C382.871 271.292 377.227 266.859 371.359 262.969C369.315 261.613 366.544 262.004 365.075 263.969C360.216 270.466 355.972 277.423 352.417 284.715C351.574 286.441 351.897 288.55 353.248 289.917C358.76 295.487 365.015 299.993 372.039 303.462C373.827 304.344 375.983 303.886 377.374 302.457C383.548 296.118 387.728 289.099 389.528 280.447C389.872 278.807 389.361 277.089 388.11 275.972Z" fill="#E37B13"/>
<path d="M403.061 356.311C405.903 347.146 407.659 337.385 408.852 327.833C409.221 324.882 407.294 322.1 404.388 321.48C395.489 319.585 386.257 319.252 377.244 320.502C374.683 320.858 372.698 322.882 372.314 325.44C370.963 334.421 370.636 343.433 370.852 352.528C370.916 355.276 372.885 357.625 375.591 358.102C382.602 359.34 389.898 359.704 397.011 360.371C399.735 360.627 402.25 358.929 403.061 356.311Z" fill="#E37B13"/>
<path d="M328.729 330.095C323.438 322.09 316.999 314.546 310.364 307.569C308.316 305.414 304.943 305.143 302.621 306.998C295.515 312.682 289.409 319.612 284.668 327.378C283.319 329.584 283.628 332.402 285.361 334.322C291.453 341.059 298.219 347.022 305.39 352.617C307.556 354.308 310.62 354.272 312.706 352.482C318.106 347.842 323.01 342.429 328.034 337.348C329.96 335.401 330.24 332.382 328.729 330.095Z" fill="#E37B13"/>
<path d="M363.18 317.308C357.89 309.302 351.45 301.759 344.816 294.782C342.767 292.626 339.394 292.355 337.072 294.211C329.966 299.894 323.86 306.825 319.119 314.59C317.77 316.797 318.079 319.614 319.814 321.534C325.907 328.271 332.673 334.235 339.843 339.83C342.009 341.52 345.073 341.485 347.157 339.694C352.557 335.055 357.461 329.642 362.485 324.56C364.413 322.614 364.691 319.594 363.18 317.308Z" fill="#E37B13"/>
<path d="M388.879 329.176C383.589 321.171 377.15 313.627 370.515 306.65C368.466 304.495 365.093 304.224 362.771 306.079C355.666 311.763 349.56 318.693 344.818 326.459C343.469 328.665 343.778 331.485 345.511 333.403C351.604 340.14 358.37 346.103 365.54 351.696C367.706 353.387 370.77 353.351 372.857 351.56C378.256 346.921 383.16 341.508 388.184 336.427C390.11 334.482 390.388 331.463 388.879 329.176Z" fill="#E37B13"/>
<path d="M365.166 284.965C359.876 276.96 353.437 269.416 346.802 262.441C344.753 260.286 341.38 260.015 339.059 261.87C331.953 267.554 325.847 274.484 321.105 282.25C319.756 284.456 320.065 287.274 321.798 289.194C327.891 295.928 334.657 301.894 341.827 307.487C343.993 309.178 347.058 309.142 349.144 307.351C354.543 302.712 359.447 297.297 364.471 292.218C366.397 290.271 366.677 287.249 365.166 284.965Z" fill="#E37B13"/>
<path d="M324.132 279.441C314.554 278.854 304.655 279.465 295.092 280.569C292.139 280.911 289.892 283.442 289.981 286.413C290.25 295.507 292.116 304.555 295.469 313.012C296.423 315.416 298.858 316.865 301.435 316.632C310.481 315.814 319.313 313.994 328.096 311.628C330.749 310.912 332.565 308.444 332.387 305.7C331.927 298.596 330.55 291.421 329.512 284.353C329.112 281.647 326.865 279.607 324.132 279.441Z" fill="#E37B13"/>
<path d="M356.89 377.052C359.729 367.887 361.487 358.126 362.68 348.573C363.049 345.623 361.123 342.841 358.214 342.221C349.315 340.326 340.083 339.992 331.073 341.243C328.511 341.599 326.527 343.623 326.14 346.18C324.789 355.162 324.463 364.174 324.678 373.268C324.743 376.017 326.711 378.365 329.418 378.843C336.428 380.081 343.722 380.445 350.837 381.112C353.564 381.367 356.079 379.67 356.89 377.052Z" fill="#E37B13"/>
<path d="M358.43 337.746C353.14 329.741 346.7 322.197 340.066 315.22C338.017 313.065 334.644 312.791 332.322 314.649C325.216 320.333 319.11 327.263 314.369 335.029C313.02 337.235 313.329 340.053 315.062 341.972C321.155 348.709 327.92 354.673 335.091 360.266C337.257 361.957 340.321 361.921 342.408 360.13C347.807 355.491 352.711 350.078 357.735 344.996C359.661 343.052 359.941 340.03 358.43 337.746Z" fill="#FFC61B"/>
<path d="M342.229 292.727C336.938 284.722 330.499 277.178 323.864 270.203C321.816 268.048 318.443 267.777 316.121 269.632C309.017 275.316 302.909 282.247 298.167 290.012C296.819 292.219 297.128 295.036 298.863 296.956C304.956 303.693 311.721 309.657 318.892 315.249C321.058 316.94 324.122 316.905 326.209 315.114C331.608 310.474 336.512 305.059 341.536 299.98C343.46 298.033 343.74 295.014 342.229 292.727Z" fill="#FFC61B"/>
<path d="M405.955 347.618C400.665 339.612 394.226 332.069 387.591 325.094C385.542 322.939 382.169 322.668 379.847 324.523C372.744 330.207 366.636 337.137 361.894 344.903C360.545 347.109 360.854 349.927 362.589 351.846C368.682 358.581 375.448 364.547 382.618 370.14C384.785 371.831 387.849 371.795 389.935 370.004C395.334 365.365 400.238 359.95 405.262 354.871C407.186 352.924 407.466 349.902 405.955 347.618Z" fill="#FFC61B"/>
<path d="M400.268 300.768C394.977 292.763 388.538 285.219 381.903 278.245C379.855 276.089 376.482 275.818 374.16 277.673C367.054 283.357 360.948 290.288 356.207 298.053C354.858 300.26 355.167 303.077 356.902 304.997C362.995 311.734 369.76 317.698 376.931 323.29C379.097 324.981 382.161 324.946 384.248 323.155C389.647 318.515 394.551 313.103 399.575 308.021C401.499 306.075 401.779 303.055 400.268 300.768Z" fill="#FFC61B"/>
<g opacity="0.2">
<path d="M349.286 200.319C315.021 200.319 284.187 215.251 262.916 238.935C283.482 220.466 310.646 209.207 340.398 209.207C404.415 209.207 456.495 261.288 456.495 325.304C456.495 355.056 445.234 382.22 426.767 402.786C450.453 381.515 465.383 350.681 465.383 316.416C465.383 252.4 413.3 200.319 349.286 200.319Z" fill="#3E3331"/>
</g>
<path d="M330.848 313.159C325.611 308.48 319.965 304.049 314.097 300.156C312.053 298.801 309.282 299.192 307.813 301.156C302.954 307.653 298.71 314.61 295.155 321.903C294.313 323.629 294.635 325.738 295.988 327.104C301.498 332.675 307.753 337.181 314.779 340.649C316.568 341.531 318.723 341.074 320.114 339.645C326.289 333.306 330.47 326.286 332.268 317.634C332.61 315.994 332.099 314.277 330.848 313.159Z" fill="#FFE655"/>
<path d="M407.173 319.384C401.935 314.705 396.289 310.272 390.421 306.381C388.377 305.026 385.606 305.417 384.138 307.381C379.278 313.878 375.034 320.835 371.479 328.128C370.637 329.854 370.959 331.963 372.31 333.329C377.823 338.9 384.078 343.406 391.101 346.874C392.89 347.756 395.045 347.299 396.436 345.87C402.611 339.531 406.793 332.512 408.59 323.859C408.935 322.219 408.424 320.502 407.173 319.384Z" fill="#FFE655"/>
<path d="M372.686 289.753C367.447 285.074 361.803 280.643 355.935 276.751C353.891 275.395 351.12 275.786 349.651 277.75C344.792 284.247 340.548 291.204 336.993 298.497C336.151 300.223 336.473 302.332 337.826 303.698C343.339 309.269 349.591 313.775 356.617 317.243C358.406 318.126 360.561 317.668 361.952 316.239C368.127 309.9 372.306 302.881 374.106 294.228C374.448 292.589 373.937 290.871 372.686 289.753Z" fill="#FFE655"/>
<path d="M376.67 358.632C374.883 351.839 372.619 345.029 369.87 338.545C368.913 336.288 366.386 335.086 364.078 335.912C356.441 338.652 349.064 342.112 342.076 346.233C340.421 347.209 339.527 349.146 339.901 351.031C341.425 358.716 344.156 365.927 348.102 372.695C349.106 374.417 351.157 375.225 353.106 374.801C361.754 372.921 369.113 369.373 375.385 363.147C376.574 361.967 377.096 360.252 376.67 358.632Z" fill="#FFE655"/>
<path d="M357.011 310.42C342.488 317.019 331.441 330.795 328.154 346.404C336.213 343.936 343.206 339.254 348.036 332.346C352.869 325.438 357.457 318.837 357.011 310.42Z" fill="#6C9721"/>
<path d="M356.07 247.726C351.403 254.145 347.555 261.386 346.48 269.25C345.404 277.111 347.435 285.672 353.106 291.223C362.773 278.769 364.124 261.277 356.07 247.726Z" fill="#6C9721"/>
<path d="M276.669 348.654C270.981 345.747 266.437 340.668 264.182 334.691C261.927 328.714 261.982 321.899 264.333 315.96C270.339 318.16 273.91 322.519 276.783 328.234C279.656 333.949 278.487 342.521 276.669 348.654Z" fill="#6C9721"/>
<path d="M392.242 360.514C386.618 363.829 380.956 367.488 377.235 372.854C373.513 378.22 372.153 385.715 375.55 391.292C381.616 388.493 387.042 384.769 390.2 378.883C393.355 372.992 393.266 367.115 392.242 360.514Z" fill="#6C9721"/>
<path d="M413.749 254.454C407.568 251.494 404.348 243.502 406.752 237.085C412.556 241.076 415.48 247.626 413.749 254.454Z" fill="#6C9721"/>
<path d="M333.714 390.232C321.822 390.77 310.85 399.953 308.229 411.565C321.445 410.381 329.693 402.878 333.714 390.232Z" fill="#6C9721"/>
<path d="M292.289 349.868C291.263 351.048 290.378 351.048 289.352 352.227C288.785 351.052 288.221 349.877 287.654 348.701C288.839 348.939 291.109 349.63 292.289 349.868Z" fill="#F05F3B"/>
<path d="M294.824 275.154C293.72 275.154 293.295 274.676 292.193 274.676C292.582 272.705 292.971 270.735 293.358 268.764C294.302 268.924 295.522 268.913 296.468 269.075C295.915 271.279 295.375 272.948 294.824 275.154Z" fill="#F05F3B"/>
<path d="M337.306 252.154C336.284 251.832 335.042 251.223 334.018 250.901C333.151 251.925 332.285 252.95 331.418 253.974C331.971 255.549 333.66 256.431 334.213 258.007C335.158 256.038 336.36 254.123 337.306 252.154Z" fill="#F05F3B"/>
<path d="M276.628 298.248C274.546 298.939 272.812 299.252 270.73 299.941C271.597 300.572 272.464 301.201 273.33 301.832C274.243 300.768 275.717 299.312 276.628 298.248Z" fill="#F05F3B"/>
<path d="M409.734 367.094C409.594 366 410.016 365.518 409.876 364.423C411.88 364.558 413.885 364.696 415.889 364.832C415.849 365.789 416.013 366.998 415.973 367.956C413.716 367.687 411.991 367.363 409.734 367.094Z" fill="#F05F3B"/>
<path d="M413.496 328.365C413.356 327.272 413.778 326.788 413.638 325.694C415.642 325.83 417.646 325.968 419.65 326.103C419.61 327.061 419.775 328.27 419.735 329.227C417.48 328.958 415.755 328.634 413.496 328.365Z" fill="#F05F3B"/>
<path d="M376.617 424.18C376.806 423.124 377.255 421.816 377.444 420.76C376.317 420.029 375.193 419.298 374.066 418.569C372.573 419.316 371.911 421.105 370.418 421.851C372.493 422.54 374.544 423.491 376.617 424.18Z" fill="#F05F3B"/>
<path d="M315.104 368.227C315.292 367.171 315.741 365.863 315.93 364.807C314.804 364.076 313.679 363.345 312.553 362.616C311.06 363.363 310.397 365.151 308.904 365.898C310.977 366.587 313.028 367.538 315.104 368.227Z" fill="#F05F3B"/>
<path d="M450.89 338.017C449.591 337.148 449.48 336.27 448.18 335.402C449.273 334.693 450.368 333.982 451.461 333.273C451.377 334.475 450.975 336.815 450.89 338.017Z" fill="#F05F3B"/>
<path d="M419.794 280.907C420.245 279.936 421.012 278.783 421.465 277.812C420.563 276.818 419.661 275.825 418.757 274.832C417.121 275.174 416.028 276.734 414.393 277.076C416.223 278.272 417.965 279.711 419.794 280.907Z" fill="#F05F3B"/>
<path d="M334.355 219.98C335.378 220.305 336.617 220.92 337.637 221.247C338.508 220.227 339.379 219.205 340.25 218.185C339.706 216.607 338.017 215.718 337.473 214.139C336.52 216.103 335.309 218.014 334.355 219.98Z" fill="#F05F3B"/>
<path d="M287.018 407.603C289.102 406.921 290.837 406.616 292.921 405.934C292.057 405.301 291.193 404.665 290.328 404.032C289.413 405.094 287.933 406.543 287.018 407.603Z" fill="#F05F3B"/>
<path d="M303.996 272.884L307.432 250.558L354.503 257.803L362.762 240.029L330.575 235.074L318.088 141.733L344.879 145.857L353.432 216.5L371.107 219.22L399.763 154.305L426.368 158.4L369.671 282.993L303.996 272.884Z" fill="url(#paint0_linear_1095_31059)"/>
<mask id="path-66-outside-1_1095_31059" maskUnits="userSpaceOnUse" x="500.443" y="225.614" width="110" height="138" fill="black">
<rect fill="white" x="500.443" y="225.614" width="110" height="138"/>
<path d="M504.017 360.614V228.846H606.796V360.614H580.066V252.188H530.747V360.614H504.017Z"/>
</mask>
<path d="M504.017 360.614V228.846H606.796V360.614H580.066V252.188H530.747V360.614H504.017Z" fill="#DCFFF4"/>
<path d="M504.017 360.614H501.121V363.51H504.017V360.614ZM504.017 228.846V225.95H501.121V228.846H504.017ZM606.796 228.846H609.692V225.95H606.796V228.846ZM606.796 360.614V363.51H609.692V360.614H606.796ZM580.066 360.614H577.17V363.51H580.066V360.614ZM580.066 252.188H582.962V249.292H580.066V252.188ZM530.747 252.188V249.292H527.851V252.188H530.747ZM530.747 360.614V363.51H533.643V360.614H530.747ZM506.913 360.614V228.846H501.121V360.614H506.913ZM504.017 231.742H606.796V225.95H504.017V231.742ZM603.9 228.846V360.614H609.692V228.846H603.9ZM606.796 357.718H580.066V363.51H606.796V357.718ZM582.962 360.614V252.188H577.17V360.614H582.962ZM580.066 249.292H530.747V255.084H580.066V249.292ZM527.851 252.188V360.614H533.643V252.188H527.851ZM530.747 357.718H504.017V363.51H530.747V357.718Z" fill="#25464A" mask="url(#path-66-outside-1_1095_31059)"/>
<mask id="path-68-outside-2_1095_31059" maskUnits="userSpaceOnUse" x="98.7305" y="225.614" width="97" height="138" fill="black">
<rect fill="white" x="98.7305" y="225.614" width="97" height="138"/>
<path d="M102.427 340.284V249.176L122.757 228.846H190.147V253.129H129.91V336.331H192.029V360.614H122.757L102.427 340.284Z"/>
</mask>
<path d="M102.427 340.284V249.176L122.757 228.846H190.147V253.129H129.91V336.331H192.029V360.614H122.757L102.427 340.284Z" fill="#DCFFF4"/>
<path d="M102.427 340.284H99.5312V341.483L100.379 342.332L102.427 340.284ZM102.427 249.176L100.379 247.128L99.5312 247.976V249.176H102.427ZM122.757 228.846V225.95H121.558L120.709 226.798L122.757 228.846ZM190.147 228.846H193.043V225.95H190.147V228.846ZM190.147 253.129V256.025H193.043V253.129H190.147ZM129.91 253.129V250.233H127.014V253.129H129.91ZM129.91 336.331H127.014V339.227H129.91V336.331ZM192.029 336.331H194.925V333.435H192.029V336.331ZM192.029 360.614V363.51H194.925V360.614H192.029ZM122.757 360.614L120.709 362.662L121.558 363.51H122.757V360.614ZM105.323 340.284V249.176H99.5312V340.284H105.323ZM104.475 251.223L124.805 230.894L120.709 226.798L100.379 247.128L104.475 251.223ZM122.757 231.742H190.147V225.95H122.757V231.742ZM187.251 228.846V253.129H193.043V228.846H187.251ZM190.147 250.233H129.91V256.025H190.147V250.233ZM127.014 253.129V336.331H132.806V253.129H127.014ZM129.91 339.227H192.029V333.435H129.91V339.227ZM189.133 336.331V360.614H194.925V336.331H189.133ZM192.029 357.718H122.757V363.51H192.029V357.718ZM124.805 358.566L104.475 338.236L100.379 342.332L120.709 362.662L124.805 358.566Z" fill="#25464A" mask="url(#path-68-outside-2_1095_31059)"/>
<defs>
<linearGradient id="paint0_linear_1095_31059" x1="371.892" y1="152.006" x2="344.874" y2="327.539" gradientUnits="userSpaceOnUse">
<stop stop-color="#7A8115"/>
<stop offset="0.308862" stop-color="#6C9721"/>
<stop offset="1" stop-color="#EDA000" stop-opacity="0"/>
</linearGradient>
</defs>
</svg>
